<?xml version="1.0" encoding="utf-8" standalone="no"?>
<!DOCTYPE svg PUBLIC "-//W3C//DTD SVG 1.1//EN"
  "http://www.w3.org/Graphics/SVG/1.1/DTD/svg11.dtd">
<svg xmlns:xlink="http://www.w3.org/1999/xlink" width="460.8pt" height="345.6pt" viewBox="0 0 460.8 345.6" xmlns="http://www.w3.org/2000/svg" version="1.1">
 <metadata>
  <rdf:RDF xmlns:dc="http://purl.org/dc/elements/1.1/" xmlns:cc="http://creativecommons.org/ns#" xmlns:rdf="http://www.w3.org/1999/02/22-rdf-syntax-ns#">
   <cc:Work>
    <dc:type rdf:resource="http://purl.org/dc/dcmitype/StillImage"/>
    <dc:date>2022-07-25T00:02:53.878845</dc:date>
    <dc:format>image/svg+xml</dc:format>
    <dc:creator>
     <cc:Agent>
      <dc:title>Matplotlib v3.5.1, https://matplotlib.org/</dc:title>
     </cc:Agent>
    </dc:creator>
   </cc:Work>
  </rdf:RDF>
 </metadata>
 <defs>
  <style type="text/css">*{stroke-linejoin: round; stroke-linecap: butt}</style>
 </defs>
 <g id="figure_1">
  <g id="patch_1">
   <path d="M 0 345.6 
L 460.8 345.6 
L 460.8 0 
L 0 0 
z
" style="fill: #ffffff"/>
  </g>
  <g id="axes_1">
   <g id="patch_2">
    <path d="M 57.6 307.584 
L 414.72 307.584 
L 414.72 41.472 
L 57.6 41.472 
z
" style="fill: #ffffff"/>
   </g>
   <g id="matplotlib.axis_1">
    <g id="xtick_1">
     <g id="line2d_1">
      <defs>
       <path id="mf63e7f8d55" d="M 0 0 
L 0 3.5 
" style="stroke: #000000; stroke-width: 0.8"/>
      </defs>
      <g>
       <use xlink:href="#mf63e7f8d55" x="73.832727" y="307.584" style="stroke: #000000; stroke-width: 0.8"/>
      </g>
     </g>
     <g id="text_1">
      <!-- 0 -->
      <g transform="translate(70.651477 322.182437)scale(0.1 -0.1)">
       <defs>
        <path id="DejaVuSans-30" d="M 2034 4250 
Q 1547 4250 1301 3770 
Q 1056 3291 1056 2328 
Q 1056 1369 1301 889 
Q 1547 409 2034 409 
Q 2525 409 2770 889 
Q 3016 1369 3016 2328 
Q 3016 3291 2770 3770 
Q 2525 4250 2034 4250 
z
M 2034 4750 
Q 2819 4750 3233 4129 
Q 3647 3509 3647 2328 
Q 3647 1150 3233 529 
Q 2819 -91 2034 -91 
Q 1250 -91 836 529 
Q 422 1150 422 2328 
Q 422 3509 836 4129 
Q 1250 4750 2034 4750 
z
" transform="scale(0.015625)"/>
       </defs>
       <use xlink:href="#DejaVuSans-30"/>
      </g>
     </g>
    </g>
    <g id="xtick_2">
     <g id="line2d_2">
      <g>
       <use xlink:href="#mf63e7f8d55" x="128.032151" y="307.584" style="stroke: #000000; stroke-width: 0.8"/>
      </g>
     </g>
     <g id="text_2">
      <!-- 100 -->
      <g transform="translate(118.488401 322.182437)scale(0.1 -0.1)">
       <defs>
        <path id="DejaVuSans-31" d="M 794 531 
L 1825 531 
L 1825 4091 
L 703 3866 
L 703 4441 
L 1819 4666 
L 2450 4666 
L 2450 531 
L 3481 531 
L 3481 0 
L 794 0 
L 794 531 
z
" transform="scale(0.015625)"/>
       </defs>
       <use xlink:href="#DejaVuSans-31"/>
       <use xlink:href="#DejaVuSans-30" x="63.623047"/>
       <use xlink:href="#DejaVuSans-30" x="127.246094"/>
      </g>
     </g>
    </g>
    <g id="xtick_3">
     <g id="line2d_3">
      <g>
       <use xlink:href="#mf63e7f8d55" x="182.231574" y="307.584" style="stroke: #000000; stroke-width: 0.8"/>
      </g>
     </g>
     <g id="text_3">
      <!-- 200 -->
      <g transform="translate(172.687824 322.182437)scale(0.1 -0.1)">
       <defs>
        <path id="DejaVuSans-32" d="M 1228 531 
L 3431 531 
L 3431 0 
L 469 0 
L 469 531 
Q 828 903 1448 1529 
Q 2069 2156 2228 2338 
Q 2531 2678 2651 2914 
Q 2772 3150 2772 3378 
Q 2772 3750 2511 3984 
Q 2250 4219 1831 4219 
Q 1534 4219 1204 4116 
Q 875 4013 500 3803 
L 500 4441 
Q 881 4594 1212 4672 
Q 1544 4750 1819 4750 
Q 2544 4750 2975 4387 
Q 3406 4025 3406 3419 
Q 3406 3131 3298 2873 
Q 3191 2616 2906 2266 
Q 2828 2175 2409 1742 
Q 1991 1309 1228 531 
z
" transform="scale(0.015625)"/>
       </defs>
       <use xlink:href="#DejaVuSans-32"/>
       <use xlink:href="#DejaVuSans-30" x="63.623047"/>
       <use xlink:href="#DejaVuSans-30" x="127.246094"/>
      </g>
     </g>
    </g>
    <g id="xtick_4">
     <g id="line2d_4">
      <g>
       <use xlink:href="#mf63e7f8d55" x="236.430997" y="307.584" style="stroke: #000000; stroke-width: 0.8"/>
      </g>
     </g>
     <g id="text_4">
      <!-- 300 -->
      <g transform="translate(226.887247 322.182437)scale(0.1 -0.1)">
       <defs>
        <path id="DejaVuSans-33" d="M 2597 2516 
Q 3050 2419 3304 2112 
Q 3559 1806 3559 1356 
Q 3559 666 3084 287 
Q 2609 -91 1734 -91 
Q 1441 -91 1130 -33 
Q 819 25 488 141 
L 488 750 
Q 750 597 1062 519 
Q 1375 441 1716 441 
Q 2309 441 2620 675 
Q 2931 909 2931 1356 
Q 2931 1769 2642 2001 
Q 2353 2234 1838 2234 
L 1294 2234 
L 1294 2753 
L 1863 2753 
Q 2328 2753 2575 2939 
Q 2822 3125 2822 3475 
Q 2822 3834 2567 4026 
Q 2313 4219 1838 4219 
Q 1578 4219 1281 4162 
Q 984 4106 628 3988 
L 628 4550 
Q 988 4650 1302 4700 
Q 1616 4750 1894 4750 
Q 2613 4750 3031 4423 
Q 3450 4097 3450 3541 
Q 3450 3153 3228 2886 
Q 3006 2619 2597 2516 
z
" transform="scale(0.015625)"/>
       </defs>
       <use xlink:href="#DejaVuSans-33"/>
       <use xlink:href="#DejaVuSans-30" x="63.623047"/>
       <use xlink:href="#DejaVuSans-30" x="127.246094"/>
      </g>
     </g>
    </g>
    <g id="xtick_5">
     <g id="line2d_5">
      <g>
       <use xlink:href="#mf63e7f8d55" x="290.63042" y="307.584" style="stroke: #000000; stroke-width: 0.8"/>
      </g>
     </g>
     <g id="text_5">
      <!-- 400 -->
      <g transform="translate(281.08667 322.182437)scale(0.1 -0.1)">
       <defs>
        <path id="DejaVuSans-34" d="M 2419 4116 
L 825 1625 
L 2419 1625 
L 2419 4116 
z
M 2253 4666 
L 3047 4666 
L 3047 1625 
L 3713 1625 
L 3713 1100 
L 3047 1100 
L 3047 0 
L 2419 0 
L 2419 1100 
L 313 1100 
L 313 1709 
L 2253 4666 
z
" transform="scale(0.015625)"/>
       </defs>
       <use xlink:href="#DejaVuSans-34"/>
       <use xlink:href="#DejaVuSans-30" x="63.623047"/>
       <use xlink:href="#DejaVuSans-30" x="127.246094"/>
      </g>
     </g>
    </g>
    <g id="xtick_6">
     <g id="line2d_6">
      <g>
       <use xlink:href="#mf63e7f8d55" x="344.829844" y="307.584" style="stroke: #000000; stroke-width: 0.8"/>
      </g>
     </g>
     <g id="text_6">
      <!-- 500 -->
      <g transform="translate(335.286094 322.182437)scale(0.1 -0.1)">
       <defs>
        <path id="DejaVuSans-35" d="M 691 4666 
L 3169 4666 
L 3169 4134 
L 1269 4134 
L 1269 2991 
Q 1406 3038 1543 3061 
Q 1681 3084 1819 3084 
Q 2600 3084 3056 2656 
Q 3513 2228 3513 1497 
Q 3513 744 3044 326 
Q 2575 -91 1722 -91 
Q 1428 -91 1123 -41 
Q 819 9 494 109 
L 494 744 
Q 775 591 1075 516 
Q 1375 441 1709 441 
Q 2250 441 2565 725 
Q 2881 1009 2881 1497 
Q 2881 1984 2565 2268 
Q 2250 2553 1709 2553 
Q 1456 2553 1204 2497 
Q 953 2441 691 2322 
L 691 4666 
z
" transform="scale(0.015625)"/>
       </defs>
       <use xlink:href="#DejaVuSans-35"/>
       <use xlink:href="#DejaVuSans-30" x="63.623047"/>
       <use xlink:href="#DejaVuSans-30" x="127.246094"/>
      </g>
     </g>
    </g>
    <g id="xtick_7">
     <g id="line2d_7">
      <g>
       <use xlink:href="#mf63e7f8d55" x="399.029267" y="307.584" style="stroke: #000000; stroke-width: 0.8"/>
      </g>
     </g>
     <g id="text_7">
      <!-- 600 -->
      <g transform="translate(389.485517 322.182437)scale(0.1 -0.1)">
       <defs>
        <path id="DejaVuSans-36" d="M 2113 2584 
Q 1688 2584 1439 2293 
Q 1191 2003 1191 1497 
Q 1191 994 1439 701 
Q 1688 409 2113 409 
Q 2538 409 2786 701 
Q 3034 994 3034 1497 
Q 3034 2003 2786 2293 
Q 2538 2584 2113 2584 
z
M 3366 4563 
L 3366 3988 
Q 3128 4100 2886 4159 
Q 2644 4219 2406 4219 
Q 1781 4219 1451 3797 
Q 1122 3375 1075 2522 
Q 1259 2794 1537 2939 
Q 1816 3084 2150 3084 
Q 2853 3084 3261 2657 
Q 3669 2231 3669 1497 
Q 3669 778 3244 343 
Q 2819 -91 2113 -91 
Q 1303 -91 875 529 
Q 447 1150 447 2328 
Q 447 3434 972 4092 
Q 1497 4750 2381 4750 
Q 2619 4750 2861 4703 
Q 3103 4656 3366 4563 
z
" transform="scale(0.015625)"/>
       </defs>
       <use xlink:href="#DejaVuSans-36"/>
       <use xlink:href="#DejaVuSans-30" x="63.623047"/>
       <use xlink:href="#DejaVuSans-30" x="127.246094"/>
      </g>
     </g>
    </g>
    <g id="text_8">
     <!-- Batch Iteration -->
     <g transform="translate(198.989688 335.860562)scale(0.1 -0.1)">
      <defs>
       <path id="DejaVuSans-42" d="M 1259 2228 
L 1259 519 
L 2272 519 
Q 2781 519 3026 730 
Q 3272 941 3272 1375 
Q 3272 1813 3026 2020 
Q 2781 2228 2272 2228 
L 1259 2228 
z
M 1259 4147 
L 1259 2741 
L 2194 2741 
Q 2656 2741 2882 2914 
Q 3109 3088 3109 3444 
Q 3109 3797 2882 3972 
Q 2656 4147 2194 4147 
L 1259 4147 
z
M 628 4666 
L 2241 4666 
Q 2963 4666 3353 4366 
Q 3744 4066 3744 3513 
Q 3744 3084 3544 2831 
Q 3344 2578 2956 2516 
Q 3422 2416 3680 2098 
Q 3938 1781 3938 1306 
Q 3938 681 3513 340 
Q 3088 0 2303 0 
L 628 0 
L 628 4666 
z
" transform="scale(0.015625)"/>
       <path id="DejaVuSans-61" d="M 2194 1759 
Q 1497 1759 1228 1600 
Q 959 1441 959 1056 
Q 959 750 1161 570 
Q 1363 391 1709 391 
Q 2188 391 2477 730 
Q 2766 1069 2766 1631 
L 2766 1759 
L 2194 1759 
z
M 3341 1997 
L 3341 0 
L 2766 0 
L 2766 531 
Q 2569 213 2275 61 
Q 1981 -91 1556 -91 
Q 1019 -91 701 211 
Q 384 513 384 1019 
Q 384 1609 779 1909 
Q 1175 2209 1959 2209 
L 2766 2209 
L 2766 2266 
Q 2766 2663 2505 2880 
Q 2244 3097 1772 3097 
Q 1472 3097 1187 3025 
Q 903 2953 641 2809 
L 641 3341 
Q 956 3463 1253 3523 
Q 1550 3584 1831 3584 
Q 2591 3584 2966 3190 
Q 3341 2797 3341 1997 
z
" transform="scale(0.015625)"/>
       <path id="DejaVuSans-74" d="M 1172 4494 
L 1172 3500 
L 2356 3500 
L 2356 3053 
L 1172 3053 
L 1172 1153 
Q 1172 725 1289 603 
Q 1406 481 1766 481 
L 2356 481 
L 2356 0 
L 1766 0 
Q 1100 0 847 248 
Q 594 497 594 1153 
L 594 3053 
L 172 3053 
L 172 3500 
L 594 3500 
L 594 4494 
L 1172 4494 
z
" transform="scale(0.015625)"/>
       <path id="DejaVuSans-63" d="M 3122 3366 
L 3122 2828 
Q 2878 2963 2633 3030 
Q 2388 3097 2138 3097 
Q 1578 3097 1268 2742 
Q 959 2388 959 1747 
Q 959 1106 1268 751 
Q 1578 397 2138 397 
Q 2388 397 2633 464 
Q 2878 531 3122 666 
L 3122 134 
Q 2881 22 2623 -34 
Q 2366 -91 2075 -91 
Q 1284 -91 818 406 
Q 353 903 353 1747 
Q 353 2603 823 3093 
Q 1294 3584 2113 3584 
Q 2378 3584 2631 3529 
Q 2884 3475 3122 3366 
z
" transform="scale(0.015625)"/>
       <path id="DejaVuSans-68" d="M 3513 2113 
L 3513 0 
L 2938 0 
L 2938 2094 
Q 2938 2591 2744 2837 
Q 2550 3084 2163 3084 
Q 1697 3084 1428 2787 
Q 1159 2491 1159 1978 
L 1159 0 
L 581 0 
L 581 4863 
L 1159 4863 
L 1159 2956 
Q 1366 3272 1645 3428 
Q 1925 3584 2291 3584 
Q 2894 3584 3203 3211 
Q 3513 2838 3513 2113 
z
" transform="scale(0.015625)"/>
       <path id="DejaVuSans-20" transform="scale(0.015625)"/>
       <path id="DejaVuSans-49" d="M 628 4666 
L 1259 4666 
L 1259 0 
L 628 0 
L 628 4666 
z
" transform="scale(0.015625)"/>
       <path id="DejaVuSans-65" d="M 3597 1894 
L 3597 1613 
L 953 1613 
Q 991 1019 1311 708 
Q 1631 397 2203 397 
Q 2534 397 2845 478 
Q 3156 559 3463 722 
L 3463 178 
Q 3153 47 2828 -22 
Q 2503 -91 2169 -91 
Q 1331 -91 842 396 
Q 353 884 353 1716 
Q 353 2575 817 3079 
Q 1281 3584 2069 3584 
Q 2775 3584 3186 3129 
Q 3597 2675 3597 1894 
z
M 3022 2063 
Q 3016 2534 2758 2815 
Q 2500 3097 2075 3097 
Q 1594 3097 1305 2825 
Q 1016 2553 972 2059 
L 3022 2063 
z
" transform="scale(0.015625)"/>
       <path id="DejaVuSans-72" d="M 2631 2963 
Q 2534 3019 2420 3045 
Q 2306 3072 2169 3072 
Q 1681 3072 1420 2755 
Q 1159 2438 1159 1844 
L 1159 0 
L 581 0 
L 581 3500 
L 1159 3500 
L 1159 2956 
Q 1341 3275 1631 3429 
Q 1922 3584 2338 3584 
Q 2397 3584 2469 3576 
Q 2541 3569 2628 3553 
L 2631 2963 
z
" transform="scale(0.015625)"/>
       <path id="DejaVuSans-69" d="M 603 3500 
L 1178 3500 
L 1178 0 
L 603 0 
L 603 3500 
z
M 603 4863 
L 1178 4863 
L 1178 4134 
L 603 4134 
L 603 4863 
z
" transform="scale(0.015625)"/>
       <path id="DejaVuSans-6f" d="M 1959 3097 
Q 1497 3097 1228 2736 
Q 959 2375 959 1747 
Q 959 1119 1226 758 
Q 1494 397 1959 397 
Q 2419 397 2687 759 
Q 2956 1122 2956 1747 
Q 2956 2369 2687 2733 
Q 2419 3097 1959 3097 
z
M 1959 3584 
Q 2709 3584 3137 3096 
Q 3566 2609 3566 1747 
Q 3566 888 3137 398 
Q 2709 -91 1959 -91 
Q 1206 -91 779 398 
Q 353 888 353 1747 
Q 353 2609 779 3096 
Q 1206 3584 1959 3584 
z
" transform="scale(0.015625)"/>
       <path id="DejaVuSans-6e" d="M 3513 2113 
L 3513 0 
L 2938 0 
L 2938 2094 
Q 2938 2591 2744 2837 
Q 2550 3084 2163 3084 
Q 1697 3084 1428 2787 
Q 1159 2491 1159 1978 
L 1159 0 
L 581 0 
L 581 3500 
L 1159 3500 
L 1159 2956 
Q 1366 3272 1645 3428 
Q 1925 3584 2291 3584 
Q 2894 3584 3203 3211 
Q 3513 2838 3513 2113 
z
" transform="scale(0.015625)"/>
      </defs>
      <use xlink:href="#DejaVuSans-42"/>
      <use xlink:href="#DejaVuSans-61" x="68.603516"/>
      <use xlink:href="#DejaVuSans-74" x="129.882812"/>
      <use xlink:href="#DejaVuSans-63" x="169.091797"/>
      <use xlink:href="#DejaVuSans-68" x="224.072266"/>
      <use xlink:href="#DejaVuSans-20" x="287.451172"/>
      <use xlink:href="#DejaVuSans-49" x="319.238281"/>
      <use xlink:href="#DejaVuSans-74" x="348.730469"/>
      <use xlink:href="#DejaVuSans-65" x="387.939453"/>
      <use xlink:href="#DejaVuSans-72" x="449.462891"/>
      <use xlink:href="#DejaVuSans-61" x="490.576172"/>
      <use xlink:href="#DejaVuSans-74" x="551.855469"/>
      <use xlink:href="#DejaVuSans-69" x="591.064453"/>
      <use xlink:href="#DejaVuSans-6f" x="618.847656"/>
      <use xlink:href="#DejaVuSans-6e" x="680.029297"/>
     </g>
    </g>
   </g>
   <g id="matplotlib.axis_2">
    <g id="ytick_1">
     <g id="line2d_8">
      <defs>
       <path id="m89840dacae" d="M 0 0 
L -3.5 0 
" style="stroke: #000000; stroke-width: 0.8"/>
      </defs>
      <g>
       <use xlink:href="#m89840dacae" x="57.6" y="304.269048" style="stroke: #000000; stroke-width: 0.8"/>
      </g>
     </g>
     <g id="text_9">
      <!-- 0.0 -->
      <g transform="translate(34.696875 308.068267)scale(0.1 -0.1)">
       <defs>
        <path id="DejaVuSans-2e" d="M 684 794 
L 1344 794 
L 1344 0 
L 684 0 
L 684 794 
z
" transform="scale(0.015625)"/>
       </defs>
       <use xlink:href="#DejaVuSans-30"/>
       <use xlink:href="#DejaVuSans-2e" x="63.623047"/>
       <use xlink:href="#DejaVuSans-30" x="95.410156"/>
      </g>
     </g>
    </g>
    <g id="ytick_2">
     <g id="line2d_9">
      <g>
       <use xlink:href="#m89840dacae" x="57.6" y="274.689173" style="stroke: #000000; stroke-width: 0.8"/>
      </g>
     </g>
     <g id="text_10">
      <!-- 0.2 -->
      <g transform="translate(34.696875 278.488391)scale(0.1 -0.1)">
       <use xlink:href="#DejaVuSans-30"/>
       <use xlink:href="#DejaVuSans-2e" x="63.623047"/>
       <use xlink:href="#DejaVuSans-32" x="95.410156"/>
      </g>
     </g>
    </g>
    <g id="ytick_3">
     <g id="line2d_10">
      <g>
       <use xlink:href="#m89840dacae" x="57.6" y="245.109297" style="stroke: #000000; stroke-width: 0.8"/>
      </g>
     </g>
     <g id="text_11">
      <!-- 0.4 -->
      <g transform="translate(34.696875 248.908516)scale(0.1 -0.1)">
       <use xlink:href="#DejaVuSans-30"/>
       <use xlink:href="#DejaVuSans-2e" x="63.623047"/>
       <use xlink:href="#DejaVuSans-34" x="95.410156"/>
      </g>
     </g>
    </g>
    <g id="ytick_4">
     <g id="line2d_11">
      <g>
       <use xlink:href="#m89840dacae" x="57.6" y="215.529421" style="stroke: #000000; stroke-width: 0.8"/>
      </g>
     </g>
     <g id="text_12">
      <!-- 0.6 -->
      <g transform="translate(34.696875 219.32864)scale(0.1 -0.1)">
       <use xlink:href="#DejaVuSans-30"/>
       <use xlink:href="#DejaVuSans-2e" x="63.623047"/>
       <use xlink:href="#DejaVuSans-36" x="95.410156"/>
      </g>
     </g>
    </g>
    <g id="ytick_5">
     <g id="line2d_12">
      <g>
       <use xlink:href="#m89840dacae" x="57.6" y="185.949545" style="stroke: #000000; stroke-width: 0.8"/>
      </g>
     </g>
     <g id="text_13">
      <!-- 0.8 -->
      <g transform="translate(34.696875 189.748764)scale(0.1 -0.1)">
       <defs>
        <path id="DejaVuSans-38" d="M 2034 2216 
Q 1584 2216 1326 1975 
Q 1069 1734 1069 1313 
Q 1069 891 1326 650 
Q 1584 409 2034 409 
Q 2484 409 2743 651 
Q 3003 894 3003 1313 
Q 3003 1734 2745 1975 
Q 2488 2216 2034 2216 
z
M 1403 2484 
Q 997 2584 770 2862 
Q 544 3141 544 3541 
Q 544 4100 942 4425 
Q 1341 4750 2034 4750 
Q 2731 4750 3128 4425 
Q 3525 4100 3525 3541 
Q 3525 3141 3298 2862 
Q 3072 2584 2669 2484 
Q 3125 2378 3379 2068 
Q 3634 1759 3634 1313 
Q 3634 634 3220 271 
Q 2806 -91 2034 -91 
Q 1263 -91 848 271 
Q 434 634 434 1313 
Q 434 1759 690 2068 
Q 947 2378 1403 2484 
z
M 1172 3481 
Q 1172 3119 1398 2916 
Q 1625 2713 2034 2713 
Q 2441 2713 2670 2916 
Q 2900 3119 2900 3481 
Q 2900 3844 2670 4047 
Q 2441 4250 2034 4250 
Q 1625 4250 1398 4047 
Q 1172 3844 1172 3481 
z
" transform="scale(0.015625)"/>
       </defs>
       <use xlink:href="#DejaVuSans-30"/>
       <use xlink:href="#DejaVuSans-2e" x="63.623047"/>
       <use xlink:href="#DejaVuSans-38" x="95.410156"/>
      </g>
     </g>
    </g>
    <g id="ytick_6">
     <g id="line2d_13">
      <g>
       <use xlink:href="#m89840dacae" x="57.6" y="156.369669" style="stroke: #000000; stroke-width: 0.8"/>
      </g>
     </g>
     <g id="text_14">
      <!-- 1.0 -->
      <g transform="translate(34.696875 160.168888)scale(0.1 -0.1)">
       <use xlink:href="#DejaVuSans-31"/>
       <use xlink:href="#DejaVuSans-2e" x="63.623047"/>
       <use xlink:href="#DejaVuSans-30" x="95.410156"/>
      </g>
     </g>
    </g>
    <g id="ytick_7">
     <g id="line2d_14">
      <g>
       <use xlink:href="#m89840dacae" x="57.6" y="126.789793" style="stroke: #000000; stroke-width: 0.8"/>
      </g>
     </g>
     <g id="text_15">
      <!-- 1.2 -->
      <g transform="translate(34.696875 130.589012)scale(0.1 -0.1)">
       <use xlink:href="#DejaVuSans-31"/>
       <use xlink:href="#DejaVuSans-2e" x="63.623047"/>
       <use xlink:href="#DejaVuSans-32" x="95.410156"/>
      </g>
     </g>
    </g>
    <g id="ytick_8">
     <g id="line2d_15">
      <g>
       <use xlink:href="#m89840dacae" x="57.6" y="97.209918" style="stroke: #000000; stroke-width: 0.8"/>
      </g>
     </g>
     <g id="text_16">
      <!-- 1.4 -->
      <g transform="translate(34.696875 101.009136)scale(0.1 -0.1)">
       <use xlink:href="#DejaVuSans-31"/>
       <use xlink:href="#DejaVuSans-2e" x="63.623047"/>
       <use xlink:href="#DejaVuSans-34" x="95.410156"/>
      </g>
     </g>
    </g>
    <g id="ytick_9">
     <g id="line2d_16">
      <g>
       <use xlink:href="#m89840dacae" x="57.6" y="67.630042" style="stroke: #000000; stroke-width: 0.8"/>
      </g>
     </g>
     <g id="text_17">
      <!-- 1.6 -->
      <g transform="translate(34.696875 71.42926)scale(0.1 -0.1)">
       <use xlink:href="#DejaVuSans-31"/>
       <use xlink:href="#DejaVuSans-2e" x="63.623047"/>
       <use xlink:href="#DejaVuSans-36" x="95.410156"/>
      </g>
     </g>
    </g>
    <g id="text_18">
     <!-- Batch Loss (Average) -->
     <g transform="translate(28.617187 227.480344)rotate(-90)scale(0.1 -0.1)">
      <defs>
       <path id="DejaVuSans-4c" d="M 628 4666 
L 1259 4666 
L 1259 531 
L 3531 531 
L 3531 0 
L 628 0 
L 628 4666 
z
" transform="scale(0.015625)"/>
       <path id="DejaVuSans-73" d="M 2834 3397 
L 2834 2853 
Q 2591 2978 2328 3040 
Q 2066 3103 1784 3103 
Q 1356 3103 1142 2972 
Q 928 2841 928 2578 
Q 928 2378 1081 2264 
Q 1234 2150 1697 2047 
L 1894 2003 
Q 2506 1872 2764 1633 
Q 3022 1394 3022 966 
Q 3022 478 2636 193 
Q 2250 -91 1575 -91 
Q 1294 -91 989 -36 
Q 684 19 347 128 
L 347 722 
Q 666 556 975 473 
Q 1284 391 1588 391 
Q 1994 391 2212 530 
Q 2431 669 2431 922 
Q 2431 1156 2273 1281 
Q 2116 1406 1581 1522 
L 1381 1569 
Q 847 1681 609 1914 
Q 372 2147 372 2553 
Q 372 3047 722 3315 
Q 1072 3584 1716 3584 
Q 2034 3584 2315 3537 
Q 2597 3491 2834 3397 
z
" transform="scale(0.015625)"/>
       <path id="DejaVuSans-28" d="M 1984 4856 
Q 1566 4138 1362 3434 
Q 1159 2731 1159 2009 
Q 1159 1288 1364 580 
Q 1569 -128 1984 -844 
L 1484 -844 
Q 1016 -109 783 600 
Q 550 1309 550 2009 
Q 550 2706 781 3412 
Q 1013 4119 1484 4856 
L 1984 4856 
z
" transform="scale(0.015625)"/>
       <path id="DejaVuSans-41" d="M 2188 4044 
L 1331 1722 
L 3047 1722 
L 2188 4044 
z
M 1831 4666 
L 2547 4666 
L 4325 0 
L 3669 0 
L 3244 1197 
L 1141 1197 
L 716 0 
L 50 0 
L 1831 4666 
z
" transform="scale(0.015625)"/>
       <path id="DejaVuSans-76" d="M 191 3500 
L 800 3500 
L 1894 563 
L 2988 3500 
L 3597 3500 
L 2284 0 
L 1503 0 
L 191 3500 
z
" transform="scale(0.015625)"/>
       <path id="DejaVuSans-67" d="M 2906 1791 
Q 2906 2416 2648 2759 
Q 2391 3103 1925 3103 
Q 1463 3103 1205 2759 
Q 947 2416 947 1791 
Q 947 1169 1205 825 
Q 1463 481 1925 481 
Q 2391 481 2648 825 
Q 2906 1169 2906 1791 
z
M 3481 434 
Q 3481 -459 3084 -895 
Q 2688 -1331 1869 -1331 
Q 1566 -1331 1297 -1286 
Q 1028 -1241 775 -1147 
L 775 -588 
Q 1028 -725 1275 -790 
Q 1522 -856 1778 -856 
Q 2344 -856 2625 -561 
Q 2906 -266 2906 331 
L 2906 616 
Q 2728 306 2450 153 
Q 2172 0 1784 0 
Q 1141 0 747 490 
Q 353 981 353 1791 
Q 353 2603 747 3093 
Q 1141 3584 1784 3584 
Q 2172 3584 2450 3431 
Q 2728 3278 2906 2969 
L 2906 3500 
L 3481 3500 
L 3481 434 
z
" transform="scale(0.015625)"/>
       <path id="DejaVuSans-29" d="M 513 4856 
L 1013 4856 
Q 1481 4119 1714 3412 
Q 1947 2706 1947 2009 
Q 1947 1309 1714 600 
Q 1481 -109 1013 -844 
L 513 -844 
Q 928 -128 1133 580 
Q 1338 1288 1338 2009 
Q 1338 2731 1133 3434 
Q 928 4138 513 4856 
z
" transform="scale(0.015625)"/>
      </defs>
      <use xlink:href="#DejaVuSans-42"/>
      <use xlink:href="#DejaVuSans-61" x="68.603516"/>
      <use xlink:href="#DejaVuSans-74" x="129.882812"/>
      <use xlink:href="#DejaVuSans-63" x="169.091797"/>
      <use xlink:href="#DejaVuSans-68" x="224.072266"/>
      <use xlink:href="#DejaVuSans-20" x="287.451172"/>
      <use xlink:href="#DejaVuSans-4c" x="319.238281"/>
      <use xlink:href="#DejaVuSans-6f" x="373.201172"/>
      <use xlink:href="#DejaVuSans-73" x="434.382812"/>
      <use xlink:href="#DejaVuSans-73" x="486.482422"/>
      <use xlink:href="#DejaVuSans-20" x="538.582031"/>
      <use xlink:href="#DejaVuSans-28" x="570.369141"/>
      <use xlink:href="#DejaVuSans-41" x="609.382812"/>
      <use xlink:href="#DejaVuSans-76" x="671.916016"/>
      <use xlink:href="#DejaVuSans-65" x="731.095703"/>
      <use xlink:href="#DejaVuSans-72" x="792.619141"/>
      <use xlink:href="#DejaVuSans-61" x="833.732422"/>
      <use xlink:href="#DejaVuSans-67" x="895.011719"/>
      <use xlink:href="#DejaVuSans-65" x="958.488281"/>
      <use xlink:href="#DejaVuSans-29" x="1020.011719"/>
     </g>
    </g>
   </g>
   <g id="line2d_17">
    <path d="M 73.832727 53.568 
L 74.374722 64.286667 
L 75.45871 67.374865 
L 76.000704 66.415693 
L 76.542698 68.302099 
L 77.084693 69.556149 
L 77.626687 69.152762 
L 78.168681 70.411409 
L 78.710675 71.296318 
L 79.25267 70.847187 
L 79.794664 70.904473 
L 80.336658 77.545117 
L 80.878652 67.931842 
L 81.420647 70.672753 
L 81.962641 74.688628 
L 82.504635 74.823527 
L 83.046629 78.649174 
L 83.588623 73.523603 
L 84.672612 77.735424 
L 85.214606 76.995891 
L 86.840589 82.463858 
L 87.382583 81.980447 
L 87.924577 83.155217 
L 88.466572 86.60163 
L 89.008566 85.840837 
L 89.55056 84.314551 
L 90.092554 91.880011 
L 90.634548 92.807988 
L 91.176543 94.536284 
L 92.260531 96.268217 
L 92.802525 93.900894 
L 93.34452 95.351204 
L 93.886514 97.362788 
L 94.428508 105.617889 
L 94.970502 104.284922 
L 95.512497 103.483711 
L 96.054491 102.062287 
L 96.596485 118.071567 
L 97.138479 113.8013 
L 97.680474 121.951783 
L 98.222468 112.550697 
L 98.764462 125.675347 
L 99.306456 133.950211 
L 99.84845 120.368021 
L 100.390445 120.359818 
L 100.932439 118.321936 
L 101.474433 130.20276 
L 102.016427 125.157011 
L 102.558422 140.5879 
L 103.100416 138.246168 
L 103.64241 146.562735 
L 104.184404 129.426339 
L 104.726399 133.417415 
L 105.810387 153.919666 
L 106.352381 144.30448 
L 106.894375 149.275782 
L 107.43637 142.851231 
L 107.978364 148.099572 
L 108.520358 154.545267 
L 109.062352 140.711084 
L 109.604347 150.478277 
L 110.146341 143.685891 
L 110.688335 147.74919 
L 111.230329 153.421085 
L 111.772324 160.364603 
L 112.314318 155.169875 
L 112.856312 162.507468 
L 113.398306 173.696625 
L 113.940301 165.193589 
L 114.482295 158.547122 
L 115.024289 147.50655 
L 115.566283 171.79452 
L 116.108277 150.834008 
L 116.650272 170.384501 
L 117.192266 165.471987 
L 117.73426 165.467287 
L 118.276254 160.666749 
L 118.818249 165.810706 
L 119.360243 161.735358 
L 119.902237 168.379246 
L 120.444231 181.207167 
L 120.986226 163.412216 
L 121.52822 176.467297 
L 122.070214 171.746213 
L 122.612208 172.225199 
L 123.154202 193.241339 
L 123.696197 184.590283 
L 124.238191 165.35113 
L 124.780185 178.651366 
L 125.322179 184.369689 
L 125.864174 176.853641 
L 126.406168 184.848612 
L 126.948162 173.956404 
L 127.490156 178.051403 
L 128.032151 184.320448 
L 128.574145 179.316172 
L 129.116139 175.916623 
L 129.658133 188.265251 
L 130.200127 184.05017 
L 130.742122 204.01774 
L 131.284116 186.294713 
L 131.82611 215.678855 
L 132.368104 195.554554 
L 132.910099 195.504684 
L 133.452093 213.3469 
L 133.994087 185.160423 
L 134.536081 192.598176 
L 135.078076 190.00649 
L 135.62007 192.941985 
L 136.162064 202.535766 
L 136.704058 205.338617 
L 137.246053 189.865969 
L 137.788047 189.501242 
L 138.330041 202.058057 
L 139.414029 206.448469 
L 139.956024 205.15723 
L 140.498018 197.509554 
L 141.040012 209.1177 
L 141.582006 204.194982 
L 142.124001 210.841719 
L 142.665995 214.231111 
L 143.207989 193.496869 
L 143.749983 210.880493 
L 144.291978 208.636781 
L 144.833972 199.654143 
L 145.375966 213.981029 
L 145.91796 207.540054 
L 146.459954 205.569522 
L 147.001949 210.589381 
L 147.543943 208.182758 
L 148.085937 203.342706 
L 148.627931 200.189391 
L 149.169926 225.05068 
L 149.71192 223.796931 
L 150.253914 201.998235 
L 150.795908 207.791573 
L 151.337903 210.120318 
L 151.879897 208.820234 
L 152.421891 217.001751 
L 152.963885 217.892686 
L 153.505879 207.437517 
L 154.047874 183.913424 
L 154.589868 176.617752 
L 155.131862 208.36695 
L 155.673856 198.2925 
L 156.215851 206.544576 
L 156.757845 204.097755 
L 157.299839 236.807701 
L 157.841833 227.283164 
L 158.383828 223.559692 
L 158.925822 218.773113 
L 160.00981 199.318543 
L 160.551805 204.978623 
L 161.093799 217.530404 
L 161.635793 215.324564 
L 162.177787 229.984213 
L 162.719781 229.372398 
L 163.261776 235.223697 
L 163.80377 236.234571 
L 164.345764 229.077875 
L 164.887758 230.320135 
L 165.429753 236.052171 
L 165.971747 239.610322 
L 166.513741 216.422685 
L 167.055735 216.099235 
L 167.59773 233.136173 
L 168.139724 240.826078 
L 168.681718 240.312641 
L 169.223712 247.705347 
L 169.765706 242.093203 
L 170.307701 242.872232 
L 171.391689 203.954328 
L 171.933683 200.256789 
L 172.475678 210.846898 
L 173.017672 237.774154 
L 173.559666 238.778265 
L 174.10166 238.591829 
L 174.643655 241.683546 
L 175.185649 242.66304 
L 175.727643 239.302335 
L 176.269637 240.136294 
L 176.811632 233.186328 
L 177.353626 215.789935 
L 177.89562 204.141778 
L 178.437614 189.136289 
L 178.979608 217.495369 
L 179.521603 221.96386 
L 180.605591 249.031367 
L 181.68958 239.310702 
L 182.231574 208.839549 
L 182.773568 205.502035 
L 183.315562 232.221032 
L 183.857557 245.147322 
L 184.399551 251.056285 
L 184.941545 249.110819 
L 185.483539 240.11929 
L 186.025533 226.33909 
L 186.567528 202.949721 
L 187.109522 184.391106 
L 187.651516 226.018105 
L 188.19351 229.012305 
L 188.735505 241.591931 
L 189.277499 238.265077 
L 189.819493 231.197301 
L 190.361487 213.68557 
L 190.903482 181.516865 
L 191.445476 201.986631 
L 191.98747 244.571728 
L 192.529464 261.438133 
L 193.071458 264.385338 
L 193.613453 258.505911 
L 194.155447 247.695116 
L 194.697441 252.391357 
L 195.239435 255.987099 
L 195.78143 248.387073 
L 196.323424 232.622563 
L 196.865418 229.519636 
L 197.407412 228.560308 
L 197.949407 225.751556 
L 198.491401 217.182574 
L 199.033395 202.458528 
L 200.117384 135.835331 
L 200.659378 213.356902 
L 201.201372 254.149843 
L 201.743366 256.155221 
L 202.28536 255.044505 
L 202.827355 262.159478 
L 203.369349 254.769532 
L 203.911343 264.282672 
L 204.453337 261.448086 
L 204.995332 255.711261 
L 205.537326 260.762031 
L 206.07932 270.402589 
L 206.621314 263.461377 
L 207.163309 267.2587 
L 207.705303 249.589366 
L 208.247297 260.195918 
L 208.789291 260.79257 
L 209.331285 271.933842 
L 209.87328 263.278808 
L 210.415274 267.468796 
L 210.957268 274.560832 
L 211.499262 255.686377 
L 212.583251 262.71646 
L 213.125245 261.328822 
L 213.667239 263.36754 
L 214.209234 258.213453 
L 214.751228 259.204732 
L 215.293222 252.417602 
L 215.835216 262.807074 
L 216.377211 260.188339 
L 216.919205 268.837993 
L 217.461199 268.513018 
L 218.003193 265.699635 
L 218.545187 257.883849 
L 219.087182 257.157811 
L 219.629176 270.740423 
L 220.17117 267.787574 
L 220.713164 254.144157 
L 221.797153 269.322155 
L 222.339147 270.27207 
L 222.881141 273.786616 
L 223.423136 273.653699 
L 223.96513 265.419093 
L 224.507124 230.444996 
L 225.049118 219.028804 
L 225.591112 173.805563 
L 226.133107 178.686254 
L 226.675101 221.55326 
L 227.217095 212.229586 
L 227.759089 248.854296 
L 228.301084 267.992125 
L 228.843078 267.998506 
L 229.385072 267.816676 
L 230.469061 261.360588 
L 231.011055 275.468438 
L 231.553049 267.542526 
L 232.095043 264.022343 
L 232.637037 265.689364 
L 233.179032 250.552867 
L 233.721026 266.593458 
L 234.26302 272.421665 
L 234.805014 272.147622 
L 235.347009 269.73374 
L 235.889003 269.911401 
L 236.430997 264.143728 
L 236.972991 268.612321 
L 237.514986 269.498185 
L 238.05698 274.006127 
L 238.598974 276.433256 
L 239.140968 280.446164 
L 239.682963 267.522143 
L 240.224957 277.693545 
L 240.766951 274.630767 
L 241.308945 265.049671 
L 241.850939 261.633984 
L 242.392934 259.500036 
L 242.934928 228.665846 
L 243.476922 217.581553 
L 244.018916 268.883105 
L 244.560911 271.538617 
L 245.102905 268.222298 
L 245.644899 274.305449 
L 246.186893 281.806175 
L 246.728888 275.586305 
L 247.270882 272.370284 
L 247.812876 271.280925 
L 248.35487 275.533264 
L 248.896864 276.439617 
L 249.980853 245.45322 
L 250.522847 243.871505 
L 251.064841 254.142806 
L 251.606836 251.222477 
L 252.14883 230.930358 
L 252.690824 244.562936 
L 253.232818 239.634592 
L 253.774813 258.450969 
L 254.316807 271.274035 
L 254.858801 265.098801 
L 255.942789 257.195655 
L 256.484784 258.890024 
L 257.026778 268.475894 
L 257.568772 264.247645 
L 258.110766 273.578187 
L 258.652761 268.572172 
L 259.194755 271.264491 
L 259.736749 268.109131 
L 260.278743 246.739128 
L 260.820738 256.109893 
L 261.362732 242.857977 
L 261.904726 266.340017 
L 262.44672 269.523803 
L 262.988715 265.797981 
L 263.530709 265.689841 
L 264.072703 272.395491 
L 264.614697 262.992635 
L 265.156691 256.283865 
L 265.698686 221.183532 
L 266.24068 210.131247 
L 266.782674 184.047665 
L 267.324668 241.341208 
L 267.866663 256.057779 
L 268.408657 274.715178 
L 268.950651 279.117487 
L 269.492645 274.014972 
L 270.03464 256.590524 
L 270.576634 252.667987 
L 271.118628 266.007149 
L 271.660622 266.929968 
L 272.202616 276.746813 
L 272.744611 269.266075 
L 273.286605 273.08424 
L 274.370593 282.97566 
L 274.912588 276.160142 
L 275.454582 285.587842 
L 275.996576 282.804986 
L 276.53857 277.638504 
L 277.080565 282.966491 
L 277.622559 280.031828 
L 278.706547 248.975129 
L 279.248542 257.821367 
L 279.790536 282.991345 
L 280.33253 273.461193 
L 280.874524 282.374916 
L 281.416518 273.324401 
L 281.958513 274.86021 
L 282.500507 283.649238 
L 283.042501 273.141764 
L 283.584495 275.516433 
L 284.12649 269.376905 
L 284.668484 287.415281 
L 285.210478 267.084998 
L 285.752472 265.263915 
L 286.294467 264.967288 
L 286.836461 279.693185 
L 287.920449 262.463005 
L 288.462443 274.443984 
L 289.546432 243.318495 
L 290.088426 254.551966 
L 290.63042 259.238148 
L 291.172415 265.351888 
L 291.714409 272.93008 
L 292.256403 284.69232 
L 292.798397 278.42684 
L 293.340392 279.004703 
L 293.882386 273.049441 
L 294.42438 285.874649 
L 294.966374 280.620686 
L 295.508368 280.155589 
L 296.050363 284.447009 
L 296.592357 282.678897 
L 297.134351 278.807386 
L 297.676345 274.025202 
L 298.21834 266.200128 
L 298.760334 280.087915 
L 299.302328 275.382653 
L 299.844322 287.398813 
L 300.928311 268.282958 
L 301.470305 260.429294 
L 302.012299 261.100198 
L 302.554294 277.048367 
L 303.096288 275.784573 
L 303.638282 285.712591 
L 304.180276 290.647159 
L 304.72227 282.772736 
L 305.264265 273.080547 
L 305.806259 277.471039 
L 306.348253 274.325447 
L 307.432242 281.452466 
L 307.974236 280.101421 
L 308.51623 268.28691 
L 310.142213 154.434865 
L 311.226201 279.690952 
L 311.768195 281.467065 
L 312.31019 278.070621 
L 312.852184 288.311029 
L 313.394178 289.086035 
L 313.936172 285.070603 
L 314.478167 286.08141 
L 315.020161 286.673923 
L 315.562155 284.656493 
L 316.104149 271.709982 
L 316.646144 280.308768 
L 317.188138 278.490505 
L 317.730132 267.809256 
L 318.272126 281.774963 
L 318.814121 286.538675 
L 319.356115 284.203561 
L 319.898109 285.686281 
L 320.440103 279.215236 
L 320.982097 281.296438 
L 321.524092 281.123889 
L 322.066086 286.277906 
L 322.60808 273.998187 
L 323.150074 279.205226 
L 323.692069 287.670966 
L 324.776057 256.098565 
L 325.318051 270.546721 
L 325.860046 268.583537 
L 326.40204 287.343631 
L 326.944034 289.725187 
L 327.486028 281.811359 
L 328.028022 288.337817 
L 328.570017 285.796158 
L 329.112011 277.409762 
L 329.654005 275.255425 
L 330.195999 280.52808 
L 330.737994 289.918521 
L 331.279988 287.449149 
L 331.821982 289.391857 
L 332.363976 283.835326 
L 332.905971 273.985252 
L 333.447965 278.601643 
L 333.989959 276.533198 
L 334.531953 262.558987 
L 335.073947 266.769322 
L 335.615942 292.633799 
L 336.157936 285.223547 
L 336.69993 276.19999 
L 337.241924 275.166164 
L 337.783919 283.722134 
L 338.325913 274.386679 
L 338.867907 269.98887 
L 339.409901 249.942808 
L 339.951896 185.839925 
L 340.49389 204.650662 
L 341.035884 274.520341 
L 341.577878 285.377584 
L 342.119873 290.155335 
L 342.661867 274.865981 
L 343.203861 283.317066 
L 343.745855 283.781161 
L 344.287849 286.806111 
L 344.829844 279.411715 
L 345.371838 263.887071 
L 345.913832 255.56213 
L 346.997821 281.638943 
L 347.539815 271.082931 
L 348.081809 270.803793 
L 349.165798 287.209048 
L 349.707792 281.497023 
L 350.249786 287.289432 
L 350.79178 281.860706 
L 351.333774 285.196366 
L 351.875769 286.414108 
L 352.417763 286.06189 
L 352.959757 289.47779 
L 353.501751 289.065791 
L 354.043746 283.555186 
L 354.58574 269.496373 
L 355.127734 266.666346 
L 355.669728 269.053957 
L 356.211723 281.878501 
L 356.753717 276.57385 
L 357.295711 266.448728 
L 357.837705 285.59928 
L 358.379699 288.527455 
L 358.921694 284.151768 
L 359.463688 286.729428 
L 360.005682 280.537882 
L 360.547676 284.053042 
L 361.089671 273.301259 
L 361.631665 283.981822 
L 362.173659 283.79141 
L 362.715653 270.873488 
L 363.257648 265.200053 
L 363.799642 276.424075 
L 364.341636 278.864714 
L 364.88363 267.987655 
L 365.425625 268.978774 
L 365.967619 261.54745 
L 367.051607 209.080651 
L 367.593601 201.864974 
L 368.135596 163.628825 
L 368.67759 144.475378 
L 369.219584 248.945365 
L 369.761578 279.057355 
L 370.303573 282.331254 
L 370.845567 287.3918 
L 371.387561 278.104949 
L 371.929555 266.350005 
L 372.47155 257.793571 
L 373.013544 265.291554 
L 373.555538 284.397299 
L 374.097532 275.041792 
L 374.639526 284.938298 
L 375.181521 282.812111 
L 375.723515 287.988259 
L 376.265509 282.646219 
L 376.807503 264.586892 
L 377.891492 274.091586 
L 378.433486 286.613305 
L 378.97548 287.835863 
L 379.517475 288.189475 
L 380.059469 285.869671 
L 380.601463 282.048339 
L 381.143457 288.223703 
L 381.685452 277.163339 
L 382.227446 278.100115 
L 382.76944 290.172367 
L 383.311434 289.450002 
L 383.853428 290.367554 
L 384.395423 285.443999 
L 384.937417 274.709634 
L 385.479411 282.632998 
L 386.5634 278.697537 
L 387.105394 286.162543 
L 387.647388 281.821528 
L 388.189382 284.354585 
L 388.731377 280.116856 
L 389.273371 290.483657 
L 389.815365 287.667717 
L 390.357359 295.488 
L 390.899353 289.382305 
L 391.441348 286.464666 
L 391.983342 282.819697 
L 392.525336 267.667907 
L 393.06733 277.097863 
L 393.609325 290.825249 
L 394.151319 289.261261 
L 394.693313 275.25267 
L 395.235307 272.235155 
L 395.777302 283.844523 
L 396.319296 283.511216 
L 396.86129 289.660795 
L 397.403284 280.87891 
L 397.945278 291.957243 
L 398.487273 292.659403 
L 398.487273 292.659403 
" clip-path="url(#pbf3c3045b2)" style="fill: none; stroke: #1f77b4; stroke-width: 1.5; stroke-linecap: square"/>
   </g>
   <g id="patch_3">
    <path d="M 57.6 307.584 
L 57.6 41.472 
" style="fill: none; stroke: #000000; stroke-width: 0.8; stroke-linejoin: miter; stroke-linecap: square"/>
   </g>
   <g id="patch_4">
    <path d="M 414.72 307.584 
L 414.72 41.472 
" style="fill: none; stroke: #000000; stroke-width: 0.8; stroke-linejoin: miter; stroke-linecap: square"/>
   </g>
   <g id="patch_5">
    <path d="M 57.6 307.584 
L 414.72 307.584 
" style="fill: none; stroke: #000000; stroke-width: 0.8; stroke-linejoin: miter; stroke-linecap: square"/>
   </g>
   <g id="patch_6">
    <path d="M 57.6 41.472 
L 414.72 41.472 
" style="fill: none; stroke: #000000; stroke-width: 0.8; stroke-linejoin: miter; stroke-linecap: square"/>
   </g>
   <g id="text_19">
    <!-- Training Loss -->
    <g transform="translate(197.421562 35.472)scale(0.12 -0.12)">
     <defs>
      <path id="DejaVuSans-54" d="M -19 4666 
L 3928 4666 
L 3928 4134 
L 2272 4134 
L 2272 0 
L 1638 0 
L 1638 4134 
L -19 4134 
L -19 4666 
z
" transform="scale(0.015625)"/>
     </defs>
     <use xlink:href="#DejaVuSans-54"/>
     <use xlink:href="#DejaVuSans-72" x="46.333984"/>
     <use xlink:href="#DejaVuSans-61" x="87.447266"/>
     <use xlink:href="#DejaVuSans-69" x="148.726562"/>
     <use xlink:href="#DejaVuSans-6e" x="176.509766"/>
     <use xlink:href="#DejaVuSans-69" x="239.888672"/>
     <use xlink:href="#DejaVuSans-6e" x="267.671875"/>
     <use xlink:href="#DejaVuSans-67" x="331.050781"/>
     <use xlink:href="#DejaVuSans-20" x="394.527344"/>
     <use xlink:href="#DejaVuSans-4c" x="426.314453"/>
     <use xlink:href="#DejaVuSans-6f" x="480.277344"/>
     <use xlink:href="#DejaVuSans-73" x="541.458984"/>
     <use xlink:href="#DejaVuSans-73" x="593.558594"/>
    </g>
   </g>
  </g>
 </g>
 <defs>
  <clipPath id="pbf3c3045b2">
   <rect x="57.6" y="41.472" width="357.12" height="266.112"/>
  </clipPath>
 </defs>
</svg>
